<?xml version="1.0" standalone="no"?><!DOCTYPE svg PUBLIC "-//W3C//DTD SVG 1.1//EN" "http://www.w3.org/Graphics/SVG/1.1/DTD/svg11.dtd"><svg t="1497427524134" class="icon" style="" viewBox="0 0 1024 1024" version="1.1" xmlns="http://www.w3.org/2000/svg" p-id="5851" xmlns:xlink="http://www.w3.org/1999/xlink" width="200" height="200"><defs><style type="text/css"></style></defs><path d="M119.583782 468.16C95.451384 468.16 75.84 484.63592 75.84 504.96 75.84 525.425773 95.424758 541.759997 119.583782 541.759997L928.096218 541.759997C952.228614 541.759997 971.84 525.284077 971.84 504.96 971.84 484.494224 952.255242 468.16 928.096218 468.16L119.583782 468.16Z" p-id="5852"></path><path d="M487.04 909.216218C487.04 933.348614 503.515923 952.96 523.84 952.96 544.305773 952.96 560.64 933.375242 560.64 909.216218L560.64 100.703781C560.64 76.571383 544.16408 56.959999 523.84 56.959999 503.374227 56.959999 487.04 76.544757 487.04 100.703781L487.04 909.216218 487.04 909.216218Z" p-id="5853"></path></svg>