<?xml version="1.0" standalone="no"?><!DOCTYPE svg PUBLIC "-//W3C//DTD SVG 1.1//EN" "http://www.w3.org/Graphics/SVG/1.1/DTD/svg11.dtd"><svg class="icon" width="200px" height="200.00px" viewBox="0 0 1024 1024" version="1.1" xmlns="http://www.w3.org/2000/svg"><path fill="#333333" d="M354.016873 450.043926 236.182141 450.043926 236.182141 326.134849l-78.555124 0 0 123.910101L39.791262 450.04495l0 82.60537 117.835755 0 0 123.910101 78.555124 0L236.182141 532.649296 354.016873 532.649296 354.016873 450.043926zM746.80477 491.349681c66.771753 0 117.835755-53.695946 117.835755-123.910101 0-70.218248-51.064003-123.908054-117.835755-123.908054-11.783371 0-23.566742 4.124947-35.350113 4.124947 23.566742 37.174668 35.350113 74.347289 35.350113 119.783107 0 45.431725-11.783371 82.60537-35.350113 119.777991C723.238029 487.21757 735.021399 491.349681 746.80477 491.349681zM550.413891 491.349681c66.771753 0 117.835755-53.695946 117.835755-123.910101 0-70.218248-51.064003-123.908054-117.835755-123.908054-66.776869 0-117.835755 53.689806-117.835755 123.908054C432.578136 437.653735 483.635999 491.349681 550.413891 491.349681zM809.653167 582.212108c31.42164 28.91454 54.988382 70.220295 54.988382 115.649973l0 82.60537 117.835755 0 0-82.60537C982.476281 635.908054 888.207267 594.60537 809.653167 582.212108zM550.413891 573.953004c-78.561263 0-235.671511 41.305755-235.671511 123.910101l0 82.60537 471.343021 0 0-82.60537C786.084379 615.257735 628.969015 573.953004 550.413891 573.953004z" /></svg>