<?xml version="1.0" standalone="no"?><!DOCTYPE svg PUBLIC "-//W3C//DTD SVG 1.1//EN" "http://www.w3.org/Graphics/SVG/1.1/DTD/svg11.dtd"><svg class="icon" width="200px" height="200.00px" viewBox="0 0 1024 1024" version="1.1" xmlns="http://www.w3.org/2000/svg"><path fill="#333333" d="M880.491 718.39l-62.893-103.555L817.598 420.846c0-111.638-83.338-223.199-199.76-265.959l-0.573-10.82c-2.826-53.326-47.629-95.096-102-95.096-53.811 0-98.584 41.315-101.931 94.061l-0.724 11.4c-117.279 42.513-202.913 153.865-202.913 266.415l0 193.992-70.301 113.48c-13.4 22.24-13.339 50.12 0.275 72.555 12.704 20.885 39.334 32.323 63.898 32.323l151.247 0 5.58 24.134c16.712 70.478 80.397 119.699 154.869 119.699 74.474 0 138.157-49.221 154.866-119.699l5.58-24.134 151.218 0c38.947 0 70.646-30.042 70.667-68.808C897.597 747.398 891.441 731.037 880.491 718.39zM515.265 913.154c-45.269 0-83.227-23.734-92.792-64.075l185.582 0C598.491 889.419 560.531 913.154 515.265 913.154zM512.483 112.979c19.928 0.504 27.629 12.943 30.794 31.481l-59.585 0.369C486.266 126.092 492.952 113.489 512.483 112.979zM826.929 768.824l-623.36 0c-2.453 0-4.702-1.2-5.87-3.118-1.248-2.053-1.28-4.554-0.048-6.6l73.112-122.046c1.791-2.997 2.734-6.387 2.734-9.835L273.497 420.846c0-78.866 59.569-160.223 141.003-198.152l73.349-12.666c1.397-0.24 2.802-0.474 4.211-0.693l2.861 0.366 8.482-1.194 1.688-0.24c3.971-0.571 7.32-1.051 9.525-1.051 2.218 0 5.566 0.483 9.114 0.992l2.581 0.366 7.95 1.102 2.557-0.288c1.814 0.288 3.632 0.603 5.44 0.928l74.683 13.45C696.809 262.128 753.8 343.092 753.8 420.846L753.8 627.22c0 3.451 0.941 6.842 2.733 9.842l71.678 116.256c0.987 1.654 2.219 3.165 3.659 4.485 1.243 1.141 1.927 2.755 1.927 4.549C833.795 765.981 830.781 768.824 826.929 768.824z" /></svg>