<?xml version="1.0" standalone="no"?><!DOCTYPE svg PUBLIC "-//W3C//DTD SVG 1.1//EN" "http://www.w3.org/Graphics/SVG/1.1/DTD/svg11.dtd"><svg class="icon" width="200px" height="200.00px" viewBox="0 0 1024 1024" version="1.1" xmlns="http://www.w3.org/2000/svg"><path fill="#333333" d="M807.473013 501.549997 383.180588 501.549997c-11.040451 0-19.97289 8.607028-19.97289 19.265786 0 10.597359 8.93244 19.267832 19.97289 19.267832l424.292426 0c11.038404 0 19.970844-8.670473 19.970844-19.267832C827.443857 510.157026 818.511417 501.549997 807.473013 501.549997zM245.781264 492.588905c-7.643074 0-15.257495 3.045359-20.674878 8.258081-5.41636 5.269004-8.550747 12.589736-8.550747 19.968797 0 7.377014 3.134387 14.757099 8.550747 19.967774 5.417383 5.213745 13.031804 8.259104 20.674878 8.259104 7.671727 0 15.256472-3.046383 20.673855-8.259104 5.418406-5.210675 8.580422-12.590759 8.580422-19.967774 0-7.379061-3.162016-14.699794-8.580422-19.968797C261.037736 495.634264 253.452991 492.588905 245.781264 492.588905zM807.473013 684.45063 383.180588 684.45063c-11.040451 0-19.97289 8.609075-19.97289 19.268856 0 10.660804 8.93244 19.327184 19.97289 19.327184l424.292426 0c11.038404 0 19.970844-8.66638 19.970844-19.327184C827.443857 693.059706 818.511417 684.45063 807.473013 684.45063zM245.781264 675.491585c-7.643074 0-15.257495 3.043313-20.674878 8.316409-5.41636 5.212722-8.550747 12.531408-8.550747 19.911492 0 7.381108 3.134387 14.759145 8.550747 19.97289 5.417383 5.213745 13.031804 8.256034 20.674878 8.256034 7.671727 0 15.256472-3.043313 20.673855-8.256034 5.418406-5.213745 8.580422-12.591783 8.580422-19.97289 0-7.380084-3.162016-14.69877-8.580422-19.911492C261.037736 678.533874 253.452991 675.491585 245.781264 675.491585zM918.575414 290.003953 493.462297 290.003953 365.200074 91.109044 96.844164 91.109044c-35.638685 0-64.62895 31.685653-64.62895 70.689992l0 198.954261 0 295.175743 0 204.047256c0 39.008432 32.827663 70.750367 73.239048 70.750367l813.122175 0c40.380686 0 73.207325-31.741935 73.207325-70.750367L991.783763 360.753297C991.814462 321.747935 958.9561 290.003953 918.575414 290.003953zM72.157925 161.799036c0-17.394159 11.302417-32.152281 24.686239-32.152281l246.1297 0 103.430674 160.357198L105.454262 290.003953c-12.035104 0-23.252587 3.104711-33.296337 8.083096L72.157925 161.799036zM918.575414 892.13267 105.454262 892.13267c-18.361183 0-33.296337-14.468526-33.296337-32.155351l0-204.047256L72.157925 360.753297c0-17.745153 14.935154-32.212656 33.296337-32.212656l813.122175 0c18.329461 0 33.266661 14.467503 33.266661 32.212656l0 499.224022 0.026606 0C951.868681 877.664144 936.935574 892.13267 918.575414 892.13267z" /></svg>