<?xml version="1.0" standalone="no"?><!DOCTYPE svg PUBLIC "-//W3C//DTD SVG 1.1//EN" "http://www.w3.org/Graphics/SVG/1.1/DTD/svg11.dtd"><svg t="1497427751806" class="icon" style="" viewBox="0 0 1024 1024" version="1.1" xmlns="http://www.w3.org/2000/svg" p-id="1328" xmlns:xlink="http://www.w3.org/1999/xlink" width="200" height="200"><defs><style type="text/css"></style></defs><path d="M927.683834 895.291164 927.620301 895.291164 97.053833 895.291164 96.990296 895.291164C79.164927 895.291164 64.715764 909.767299 64.715764 927.662433 64.715764 945.528858 79.193581 960 96.990294 960L97.053832 960 927.620301 960 927.683834 960C945.51543 960 959.963347 945.528858 959.963347 927.662433 959.963354 909.767299 945.514189 895.291164 927.683834 895.291164L927.683834 895.291164 927.683834 895.291164ZM488.133037 826.138502C494.157881 832.21381 502.450141 836.012282 511.668054 836.012282L511.668054 836.012282C520.884721 836.012282 529.178227 832.243768 535.144516 826.109791L936.327418 424.138335C942.357248 418.131681 946.153299 409.823225 946.181952 400.65097 946.181952 382.341414 931.256883 367.513267 913.080192 367.513267 903.892179 367.484557 895.633555 371.253069 889.667264 377.260973L544.741163 722.829551 544.741163 97.235072C544.712509 97.200122 544.712509 97.200122 544.712509 97.171411 544.741163 78.856858 529.941921 64 511.701692 64 493.422841 64 478.628582 78.856858 478.628582 97.171411 478.628582 97.171411 478.628582 97.200122 478.658482 97.235072L478.658482 722.795848 133.767263 377.226022C127.800972 371.219366 119.478813 367.484557 110.354337 367.513267 92.08047 367.484557 77.281228 382.341414 77.217691 400.587309 77.217691 409.793268 80.980104 418.165385 87.009932 424.109625L488.133037 826.138502 488.133037 826.138502Z" p-id="1329"></path></svg>