<?xml version="1.0" standalone="no"?><!DOCTYPE svg PUBLIC "-//W3C//DTD SVG 1.1//EN" "http://www.w3.org/Graphics/SVG/1.1/DTD/svg11.dtd"><svg class="icon" width="200px" height="200.00px" viewBox="0 0 1024 1024" version="1.1" xmlns="http://www.w3.org/2000/svg"><path fill="#333333" d="M336.5 445.2V341.7h380.1c40.3 0 75.2 22.8 92.7 56.1 13.1-18.6 20.8-41.3 20.8-65.8 0-63.1-51.1-114.2-114.2-114.2H336.5V113.9c0-15.3-17.2-24.2-29.7-15.4L72.1 264.1c-10.7 7.5-10.7 23.3 0 30.8l234.7 165.6c12.4 8.9 29.7 0 29.7-15.3m0 0zM952.4 695.9L717.7 530.2c-12.5-8.8-29.8 0.1-29.8 15.4v103.5H307.8c-40.3 0-75.2-22.8-92.7-56.1-13.1 18.6-20.8 41.3-20.8 65.8 0 63.1 51.1 114.2 114.2 114.2H688v103.9c0 15.3 17.3 24.2 29.8 15.4l234.7-165.6c10.5-7.5 10.5-23.3-0.1-30.8m0 0z"  /></svg>