<?xml version="1.0" standalone="no"?><!DOCTYPE svg PUBLIC "-//W3C//DTD SVG 1.1//EN" "http://www.w3.org/Graphics/SVG/1.1/DTD/svg11.dtd"><svg class="icon" width="200px" height="200.00px" viewBox="0 0 1024 1024" version="1.1" xmlns="http://www.w3.org/2000/svg"><path fill="#333333" d="M97.435635 542.895661c-5.229095 0-10.520611-1.27504-15.423271-3.978614-15.486716-8.531304-21.128203-28.000728-12.610202-43.493583 6.643304-12.059664 165.710113-295.179836 442.049858-295.179836 276.190343 0 437.322184 282.97077 444.039165 295.01713 8.619308 15.442714 3.090385 34.94386-12.346189 43.569308-15.422248 8.606005-34.948977 3.101641-43.568285-12.358469-1.464351-2.589988-149.860123-262.180258-388.123668-262.180258-238.900042 0-384.495024 259.404028-385.933793 262.023692C119.676172 536.905226 108.730888 542.895661 97.435635 542.895661zM511.45202 821.494866c-276.339746 0-435.406554-283.128359-442.049858-295.179836-8.519024-15.498996-2.877537-34.969443 12.610202-43.500746 15.485693-8.512884 34.925441-2.902096 43.482327 12.583596l0 0c1.450025 2.614547 147.796114 262.054391 385.957329 262.054391 238.263545 0 386.66034-259.602549 388.134925-262.223237 8.644891-15.412015 28.15934-20.928658 43.571355-12.297071 15.422248 8.637728 20.952194 28.108175 12.332886 43.538609C948.774203 538.517957 787.642362 821.494866 511.45202 821.494866zM512.501932 681.122839c-93.881181 0-170.260755-76.374458-170.260755-170.249499 0-93.88732 76.380598-170.262802 170.260755-170.262802 93.881181 0 170.250522 76.375481 170.250522 170.262802C682.752454 604.748381 606.383112 681.122839 512.501932 681.122839zM512.501932 404.657226c-58.566884 0-106.21509 47.647183-106.21509 106.21509 0 58.555627 47.648207 106.20281 106.21509 106.20281 58.556651 0 106.203834-47.648207 106.203834-106.20281C618.705765 452.30441 571.058582 404.657226 512.501932 404.657226z" /></svg>