<?xml version="1.0" standalone="no"?><!DOCTYPE svg PUBLIC "-//W3C//DTD SVG 1.1//EN" "http://www.w3.org/Graphics/SVG/1.1/DTD/svg11.dtd"><svg class="icon" width="200px" height="200.00px" viewBox="0 0 1024 1024" version="1.1" xmlns="http://www.w3.org/2000/svg"><path fill="#333333" d="M392.124284 362.897124c0 0-54.16462-54.894238-127.652332-10.063193-65.750493 42.800805-54.122665 121.130801-54.122665 121.130801s-146.046261 29.915333-146.046261 186.859805c3.25616 156.690692 158.604274 158.297282 158.604274 158.297282l233.191016 0.252757L456.098317 651.616828 344.280626 651.616828l167.758772-167.747515L679.775656 651.616828 567.937498 651.616828 567.937498 819.374576l226.425939-0.252757c0 0 144.56656 0.12689 164.883281-148.94324 9.661034-163.05361-139.745764-195.189518-139.745764-195.189518s16.997116-241.36314-192.811354-268.87882C446.839443 186.756451 392.124284 362.897124 392.124284 362.897124z" /></svg>