<?xml version="1.0" standalone="no"?><!DOCTYPE svg PUBLIC "-//W3C//DTD SVG 1.1//EN" "http://www.w3.org/Graphics/SVG/1.1/DTD/svg11.dtd"><svg class="icon" width="200px" height="200.00px" viewBox="0 0 1024 1024" version="1.1" xmlns="http://www.w3.org/2000/svg"><path fill="#333333" d="M928.704 895.808c-0.032 0-0.064 0-0.064 0L95.328 895.808 95.264 895.808c-17.888 0-32.384 14.496-32.384 32.448 0 17.888 14.528 32.384 32.384 32.384l0.064 0 833.344 0c0 0 0.032 0 0.064 0 17.92 0 32.384-14.496 32.384-32.384C961.088 910.304 946.624 895.808 928.704 895.808zM487.68 826.56c6.08 6.08 14.368 9.92 23.616 9.92l0 0 0 0c9.248-0.032 17.568-3.776 23.584-9.952l311.968-312c6.016-6.016 9.888-14.336 9.888-23.52 0-18.336-14.944-33.152-33.184-33.184-9.248-0.064-17.504 3.744-23.552 9.792l-255.456 255.52-0.064-626.464c0 0 0 0 0-0.064 0-18.336-14.848-33.216-33.12-33.248-18.336 0.032-33.184 14.912-33.184 33.248 0 0 0 0.032 0 0.064l-0.032 626.4L222.656 467.52c-5.984-6.016-14.336-9.76-23.52-9.76-18.304 0-33.184 14.88-33.216 33.184 0 9.184 3.776 17.568 9.856 23.488L487.68 826.56z" /></svg>