<?xml version="1.0" standalone="no"?><!DOCTYPE svg PUBLIC "-//W3C//DTD SVG 1.1//EN" "http://www.w3.org/Graphics/SVG/1.1/DTD/svg11.dtd"><svg class="icon" width="200px" height="200.00px" viewBox="0 0 1024 1024" version="1.1" xmlns="http://www.w3.org/2000/svg"><path fill="#333333" d="M961.536 354.051523c0-29.029996-27.585939-52.549112-61.595152-52.549112s-61.595152 23.519115-61.595152 52.549112l0 97.599812-0.062061 0 0 400.939184c0 28.277144-23.210667 51.224091-51.789576 51.224091L268.536242 903.81461c-28.578909 0-51.789576-22.946947-51.789576-51.224091L216.746667 451.651335 216.684606 451.651335l0-97.599812c0-29.029996-27.585939-52.549112-61.595152-52.549112s-61.564121 23.519115-61.564121 52.549112l0 97.599812L93.463273 451.651335l0 443.369956c0 71.219856 60.726303 128.978708 135.633455 128.978708l596.836848 0c74.907152 0 135.633455-57.758852 135.633455-128.978708L961.56703 451.651335l-0.03103 0L961.536 354.051523zM713.169455 759.025997 713.169455 355.256088c0-29.722621-27.585939-53.844018-61.595152-53.844018-34.009212 0-61.564121 24.091283-61.564121 53.844018l0 403.769909c0 29.752735 27.585939 53.813904 61.564121 53.813904C685.614545 812.839901 713.169455 788.778732 713.169455 759.025997zM465.020121 759.025997 465.020121 355.256088c0-29.722621-27.554909-53.844018-61.564121-53.844018s-61.595152 24.091283-61.595152 53.844018l0 403.769909c0 29.752735 27.585939 53.813904 61.595152 53.813904S465.020121 788.778732 465.020121 759.025997zM970.131394 90.282084l-194.715152 0c-1.551515-0.210799-52.534303-7.799553-69.849212-27.885661-10.550303-12.226326-24.482909-25.145277-35.560727-36.588637C664.358788 20.025879 632.366545 0 605.711515 0l-187.950545 0c-23.303758 0-56.599273 19.092342-61.874424 24.482767-11.326061 11.654158-24.762182 25.777673-36.708848 37.732973C298.356364 83.114928 250.259394 90.041172 248.676848 90.282084L53.899636 90.282084C24.110545 90.282084 0 117.384778 0 150.871662s24.110545 60.589578 53.899636 60.589578l227.421091 0c26.65503 0 60.509091-23.308317 70.62497-36.648865 11.139879-14.725797 23.986424-31.680038 35.219394-46.496177 15.484121-20.417363 33.76097-37.522174 67.863273-37.522174l113.664 0c34.78497 0 55.947636 22.585578 64.915394 34.420421 11.605333 15.328079 25.289697 33.396542 37.174303 49.055876 10.550303 13.912716 43.876848 37.190919 71.617939 37.190919l227.731394 0C999.889455 211.46124 1024 184.328432 1024 150.871662S999.889455 90.282084 970.131394 90.282084z" /></svg>