<?xml version="1.0" standalone="no"?><!DOCTYPE svg PUBLIC "-//W3C//DTD SVG 1.1//EN" "http://www.w3.org/Graphics/SVG/1.1/DTD/svg11.dtd"><svg class="icon" width="200px" height="200.00px" viewBox="0 0 1024 1024" version="1.1" xmlns="http://www.w3.org/2000/svg"><path fill="#333333" d="M511.865947 63.944358c-247.171426 0-447.580828 200.370517-447.580828 447.541943 0 247.211335 200.409402 447.582875 447.580828 447.582875s447.542966-200.370517 447.542966-447.582875C959.409936 264.315898 759.038396 63.944358 511.865947 63.944358zM758.044766 388.488988l-266.202874 266.202874c-0.028653 0.028653-0.021489 0.084934-0.051165 0.113587l-1.320065 1.257643-17.066701 17.066701c-1.826602 1.826602-3.749394 3.354398-5.664 4.590552l-2.1295 2.029216c-1.301645 1.240247-3.361561 1.36509-5.641487 1.01205-2.396583 0.36225-4.550643 0.207731-5.868661-1.110287l-2.359744-2.359744c-1.798972-1.255597-3.602038-2.77623-5.307889-4.565992l-14.95255-15.694447-2.950192-2.950192c-0.065492-0.065492-0.049119-0.192382-0.110517-0.261966L265.247106 482.550271c-6.950296-7.29515-9.668197-16.009625-6.05081-19.456121l26.181289-24.943089c3.617387-3.446495 12.189623-0.312108 19.140942 6.984065L460.72929 609.095385l258.960936-258.960936c7.164167-7.164167 15.810081-10.089799 19.343557-6.557346l25.570375 25.570375C768.136611 372.679931 765.208932 381.324822 758.044766 388.488988z" /></svg>