<?xml version="1.0" standalone="no"?><!DOCTYPE svg PUBLIC "-//W3C//DTD SVG 1.1//EN" "http://www.w3.org/Graphics/SVG/1.1/DTD/svg11.dtd"><svg class="icon" width="200px" height="200.00px" viewBox="0 0 1024 1024" version="1.1" xmlns="http://www.w3.org/2000/svg"><path fill="#333333" d="M557.2 512l231-231c12.5-12.5 12.5-32.7 0-45.2s-32.7-12.5-45.2 0l-231 231-231-231c-12.5-12.5-32.7-12.5-45.2 0-12.5 12.5-12.5 32.7 0 45.2l231 231-231 231c-12.5 12.5-12.5 32.7 0 45.2 6.2 6.2 14.4 9.4 22.6 9.4 8.2 0 16.4-3.1 22.6-9.4l231-231 231 231c6.2 6.2 14.4 9.4 22.6 9.4s16.4-3.1 22.6-9.4c12.5-12.5 12.5-32.7 0-45.2L557.2 512z" /></svg>